<?xml version="1.0" encoding="UTF-8" standalone="no"?>
<!DOCTYPE svg PUBLIC "-//W3C//DTD SVG 1.1//EN" "http://www.w3.org/Graphics/SVG/1.1/DTD/svg11.dtd">
<svg width="100%" height="100%" viewBox="0 0 32 32" version="1.1" xmlns="http://www.w3.org/2000/svg" xmlns:xlink="http://www.w3.org/1999/xlink" xml:space="preserve" xmlns:serif="http://www.serif.com/" style="fill-rule:evenodd;clip-rule:evenodd;stroke-linejoin:round;stroke-miterlimit:2;">
    <g transform="matrix(0.866025,0.5,-0.5,0.866025,10.1436,-5.85641)">
        <path d="M17.958,6.837L17.958,10.747C17.958,11.049 17.787,11.326 17.517,11.461C17.247,11.596 16.924,11.567 16.682,11.385C14.653,9.863 10.742,6.93 9.019,5.638C8.818,5.487 8.7,5.251 8.7,5C8.7,4.749 8.818,4.513 9.019,4.362C10.742,3.07 14.653,0.137 16.682,-1.385C16.924,-1.567 17.247,-1.596 17.517,-1.461C17.787,-1.326 17.958,-1.049 17.958,-0.747C17.958,0.988 17.958,3.52 17.958,3.52C24.001,4.462 28.632,9.694 28.632,16C28.632,22.972 22.972,28.632 16,28.632C15.1,28.632 14.368,27.9 14.368,27C14.368,26.1 15.1,25.368 16,25.368C21.171,25.368 25.368,21.171 25.368,16C25.368,11.501 22.19,7.738 17.958,6.837Z"/>
    </g>
</svg>
