<?xml version="1.0" encoding="UTF-8" standalone="no"?>
<!DOCTYPE svg PUBLIC "-//W3C//DTD SVG 1.1//EN" "http://www.w3.org/Graphics/SVG/1.1/DTD/svg11.dtd">
<svg width="100%" height="100%" viewBox="0 0 32 32" version="1.1" xmlns="http://www.w3.org/2000/svg" xmlns:xlink="http://www.w3.org/1999/xlink" xml:space="preserve" xmlns:serif="http://www.serif.com/" style="fill-rule:evenodd;clip-rule:evenodd;stroke-linejoin:round;stroke-miterlimit:2;">
    <g transform="matrix(0.866025,0.5,-0.5,0.866025,4.64351,-5.85641)">
        <path d="M22.053,8.852C22.053,8.852 21.185,10.466 20.45,11.831C20.26,12.185 19.886,12.401 19.485,12.389C19.083,12.377 18.723,12.139 18.554,11.775C17.506,9.512 15.795,5.819 14.897,3.879C14.756,3.576 14.767,3.225 14.925,2.931C15.083,2.637 15.37,2.434 15.701,2.384C17.815,2.065 21.839,1.457 24.305,1.084C24.702,1.024 25.099,1.194 25.33,1.522C25.561,1.851 25.587,2.281 25.397,2.635C24.602,4.114 23.624,5.931 23.624,5.931C26.666,8.238 28.632,11.891 28.632,16C28.632,20.671 26.091,24.753 22.318,26.938C21.538,27.39 20.539,27.123 20.088,26.344C19.637,25.565 19.903,24.566 20.683,24.114C23.482,22.493 25.368,19.465 25.368,16C25.368,13.136 24.08,10.571 22.053,8.852Z"/>
    </g>
</svg>
